<mxfile host="app.diagrams.net" modified="2024-02-24T18:36:16.707Z" agent="Mozilla/5.0 (Windows NT 10.0; Win64; x64) AppleWebKit/537.36 (KHTML, like Gecko) Chrome/122.0.0.0 Safari/537.36" etag="RbFShhR-Q_xuGU7L8YZg" version="23.1.6" type="github">
  <diagram id="R2lEEEUBdFMjLlhIrx00" name="Page-1">
    <mxGraphModel dx="2950" dy="2214" grid="1" gridSize="10" guides="1" tooltips="1" connect="1" arrows="1" fold="1" page="1" pageScale="1" pageWidth="850" pageHeight="1100" math="0" shadow="0" extFonts="Permanent Marker^https://fonts.googleapis.com/css?family=Permanent+Marker">
      <root>
        <mxCell id="0" />
        <mxCell id="1" parent="0" />
        <mxCell id="SBLlrL6rcGhFqi7RE3Hi-3" value="&lt;font style=&quot;font-size: 36px;&quot;&gt;User&lt;/font&gt;" style="whiteSpace=wrap;html=1;align=center;" vertex="1" parent="1">
          <mxGeometry x="90" y="80" width="190" height="80" as="geometry" />
        </mxCell>
        <mxCell id="SBLlrL6rcGhFqi7RE3Hi-4" value="&lt;font style=&quot;font-size: 24px;&quot;&gt;E-WasteItem&lt;/font&gt;" style="whiteSpace=wrap;html=1;align=center;" vertex="1" parent="1">
          <mxGeometry x="810" y="80" width="170" height="80" as="geometry" />
        </mxCell>
        <mxCell id="SBLlrL6rcGhFqi7RE3Hi-6" value="&lt;font style=&quot;font-size: 24px;&quot;&gt;Collector&lt;/font&gt;" style="whiteSpace=wrap;html=1;align=center;" vertex="1" parent="1">
          <mxGeometry x="820" y="560" width="180" height="80" as="geometry" />
        </mxCell>
        <mxCell id="SBLlrL6rcGhFqi7RE3Hi-7" value="&lt;span style=&quot;font-size: 24px;&quot;&gt;Admin&lt;/span&gt;" style="whiteSpace=wrap;html=1;align=center;" vertex="1" parent="1">
          <mxGeometry x="100" y="560" width="190" height="80" as="geometry" />
        </mxCell>
        <mxCell id="SBLlrL6rcGhFqi7RE3Hi-8" value="&lt;font style=&quot;font-size: 24px;&quot;&gt;UserAddress&lt;/font&gt;" style="ellipse;whiteSpace=wrap;html=1;align=center;" vertex="1" parent="1">
          <mxGeometry x="-300" y="-50" width="170" height="70" as="geometry" />
        </mxCell>
        <mxCell id="SBLlrL6rcGhFqi7RE3Hi-9" value="&lt;span style=&quot;font-size: 24px;&quot;&gt;USerPassword&lt;/span&gt;" style="ellipse;whiteSpace=wrap;html=1;align=center;" vertex="1" parent="1">
          <mxGeometry x="-330" y="60" width="170" height="70" as="geometry" />
        </mxCell>
        <mxCell id="SBLlrL6rcGhFqi7RE3Hi-10" value="&lt;font style=&quot;font-size: 24px;&quot;&gt;UserEmail&lt;/font&gt;" style="ellipse;whiteSpace=wrap;html=1;align=center;" vertex="1" parent="1">
          <mxGeometry x="-290" y="170" width="170" height="80" as="geometry" />
        </mxCell>
        <mxCell id="SBLlrL6rcGhFqi7RE3Hi-13" value="&lt;font style=&quot;font-size: 24px;&quot;&gt;ItemType&lt;/font&gt;" style="ellipse;whiteSpace=wrap;html=1;align=center;" vertex="1" parent="1">
          <mxGeometry x="970" y="-120" width="170" height="80" as="geometry" />
        </mxCell>
        <mxCell id="SBLlrL6rcGhFqi7RE3Hi-14" value="&lt;font style=&quot;font-size: 24px;&quot;&gt;ItemDescription&lt;/font&gt;" style="ellipse;whiteSpace=wrap;html=1;align=center;" vertex="1" parent="1">
          <mxGeometry x="1120" y="-35" width="170" height="80" as="geometry" />
        </mxCell>
        <mxCell id="SBLlrL6rcGhFqi7RE3Hi-15" value="&lt;font style=&quot;font-size: 24px;&quot;&gt;AdminName&lt;/font&gt;" style="ellipse;whiteSpace=wrap;html=1;align=center;" vertex="1" parent="1">
          <mxGeometry x="-50" y="700" width="160" height="80" as="geometry" />
        </mxCell>
        <mxCell id="SBLlrL6rcGhFqi7RE3Hi-16" value="&lt;font style=&quot;font-size: 24px;&quot;&gt;AdminId&lt;/font&gt;" style="ellipse;whiteSpace=wrap;html=1;align=center;" vertex="1" parent="1">
          <mxGeometry x="140" y="740" width="160" height="70" as="geometry" />
        </mxCell>
        <mxCell id="SBLlrL6rcGhFqi7RE3Hi-17" value="&lt;font style=&quot;font-size: 24px;&quot;&gt;Collector&lt;br&gt;Password&lt;/font&gt;" style="ellipse;whiteSpace=wrap;html=1;align=center;" vertex="1" parent="1">
          <mxGeometry x="790" y="760" width="160" height="60" as="geometry" />
        </mxCell>
        <mxCell id="SBLlrL6rcGhFqi7RE3Hi-18" value="&lt;font style=&quot;font-size: 24px;&quot;&gt;CollectorName&lt;/font&gt;" style="ellipse;whiteSpace=wrap;html=1;align=center;" vertex="1" parent="1">
          <mxGeometry x="1110" y="550" width="170" height="70" as="geometry" />
        </mxCell>
        <mxCell id="SBLlrL6rcGhFqi7RE3Hi-21" value="&lt;font style=&quot;font-size: 24px;&quot;&gt;EmailAddress&lt;/font&gt;" style="ellipse;whiteSpace=wrap;html=1;align=center;" vertex="1" parent="1">
          <mxGeometry x="980" y="740" width="170" height="70" as="geometry" />
        </mxCell>
        <mxCell id="SBLlrL6rcGhFqi7RE3Hi-22" value="&lt;font style=&quot;font-size: 24px;&quot;&gt;UserName&lt;/font&gt;" style="ellipse;whiteSpace=wrap;html=1;align=center;" vertex="1" parent="1">
          <mxGeometry x="90" y="-95" width="160" height="75" as="geometry" />
        </mxCell>
        <mxCell id="SBLlrL6rcGhFqi7RE3Hi-27" value="&lt;font style=&quot;font-size: 24px;&quot;&gt;UserID&lt;/font&gt;" style="ellipse;whiteSpace=wrap;html=1;align=center;fontStyle=4;" vertex="1" parent="1">
          <mxGeometry x="-110" y="-105" width="170" height="70" as="geometry" />
        </mxCell>
        <mxCell id="SBLlrL6rcGhFqi7RE3Hi-29" value="&lt;font style=&quot;font-size: 24px;&quot;&gt;ItemID&lt;/font&gt;" style="ellipse;whiteSpace=wrap;html=1;align=center;fontStyle=4;" vertex="1" parent="1">
          <mxGeometry x="740" y="-125" width="170" height="85" as="geometry" />
        </mxCell>
        <mxCell id="SBLlrL6rcGhFqi7RE3Hi-30" value="&lt;font style=&quot;font-size: 24px;&quot;&gt;CollectorId&lt;/font&gt;" style="ellipse;whiteSpace=wrap;html=1;align=center;fontStyle=4;" vertex="1" parent="1">
          <mxGeometry x="1155" y="680" width="175" height="70" as="geometry" />
        </mxCell>
        <mxCell id="SBLlrL6rcGhFqi7RE3Hi-32" value="" style="endArrow=none;html=1;rounded=0;entryX=0;entryY=0.5;entryDx=0;entryDy=0;" edge="1" parent="1" target="SBLlrL6rcGhFqi7RE3Hi-3">
          <mxGeometry relative="1" as="geometry">
            <mxPoint x="-160" y="94.17000000000002" as="sourcePoint" />
            <mxPoint y="94.17000000000002" as="targetPoint" />
            <Array as="points" />
          </mxGeometry>
        </mxCell>
        <mxCell id="SBLlrL6rcGhFqi7RE3Hi-33" value="" style="endArrow=none;html=1;rounded=0;entryX=0;entryY=0.75;entryDx=0;entryDy=0;" edge="1" parent="1" target="SBLlrL6rcGhFqi7RE3Hi-3">
          <mxGeometry relative="1" as="geometry">
            <mxPoint x="-120" y="209.17" as="sourcePoint" />
            <mxPoint x="40" y="209.17" as="targetPoint" />
          </mxGeometry>
        </mxCell>
        <mxCell id="SBLlrL6rcGhFqi7RE3Hi-34" value="" style="endArrow=none;html=1;rounded=0;exitX=1;exitY=0.5;exitDx=0;exitDy=0;entryX=0.408;entryY=0.996;entryDx=0;entryDy=0;entryPerimeter=0;" edge="1" parent="1" source="SBLlrL6rcGhFqi7RE3Hi-4" target="SBLlrL6rcGhFqi7RE3Hi-14">
          <mxGeometry relative="1" as="geometry">
            <mxPoint x="1010" y="45" as="sourcePoint" />
            <mxPoint x="1180" y="40" as="targetPoint" />
          </mxGeometry>
        </mxCell>
        <mxCell id="SBLlrL6rcGhFqi7RE3Hi-35" value="" style="endArrow=none;html=1;rounded=0;entryX=0.435;entryY=1.008;entryDx=0;entryDy=0;entryPerimeter=0;exitX=0.75;exitY=0;exitDx=0;exitDy=0;" edge="1" parent="1" source="SBLlrL6rcGhFqi7RE3Hi-4" target="SBLlrL6rcGhFqi7RE3Hi-13">
          <mxGeometry relative="1" as="geometry">
            <mxPoint x="900" y="-50" as="sourcePoint" />
            <mxPoint x="1060" y="-50" as="targetPoint" />
          </mxGeometry>
        </mxCell>
        <mxCell id="SBLlrL6rcGhFqi7RE3Hi-36" value="" style="endArrow=none;html=1;rounded=0;entryX=0.5;entryY=0;entryDx=0;entryDy=0;" edge="1" parent="1" target="SBLlrL6rcGhFqi7RE3Hi-4">
          <mxGeometry relative="1" as="geometry">
            <mxPoint x="820" y="-40" as="sourcePoint" />
            <mxPoint x="980" y="-40" as="targetPoint" />
          </mxGeometry>
        </mxCell>
        <mxCell id="SBLlrL6rcGhFqi7RE3Hi-37" value="" style="endArrow=none;html=1;rounded=0;entryX=0.396;entryY=-0.025;entryDx=0;entryDy=0;entryPerimeter=0;" edge="1" parent="1" target="SBLlrL6rcGhFqi7RE3Hi-3">
          <mxGeometry relative="1" as="geometry">
            <mxPoint x="170" y="-20" as="sourcePoint" />
            <mxPoint x="330" y="-20" as="targetPoint" />
          </mxGeometry>
        </mxCell>
        <mxCell id="SBLlrL6rcGhFqi7RE3Hi-38" value="" style="endArrow=none;html=1;rounded=0;entryX=0.25;entryY=0;entryDx=0;entryDy=0;" edge="1" parent="1" target="SBLlrL6rcGhFqi7RE3Hi-3">
          <mxGeometry relative="1" as="geometry">
            <mxPoint y="-35" as="sourcePoint" />
            <mxPoint x="160" y="-35" as="targetPoint" />
          </mxGeometry>
        </mxCell>
        <mxCell id="SBLlrL6rcGhFqi7RE3Hi-39" value="" style="endArrow=none;html=1;rounded=0;entryX=0;entryY=0.25;entryDx=0;entryDy=0;exitX=0.933;exitY=0.724;exitDx=0;exitDy=0;exitPerimeter=0;" edge="1" parent="1" source="SBLlrL6rcGhFqi7RE3Hi-8" target="SBLlrL6rcGhFqi7RE3Hi-3">
          <mxGeometry relative="1" as="geometry">
            <mxPoint x="-130" as="sourcePoint" />
            <mxPoint x="30" as="targetPoint" />
          </mxGeometry>
        </mxCell>
        <mxCell id="SBLlrL6rcGhFqi7RE3Hi-40" value="" style="endArrow=none;html=1;rounded=0;" edge="1" parent="1">
          <mxGeometry relative="1" as="geometry">
            <mxPoint x="220" y="738.33" as="sourcePoint" />
            <mxPoint x="170" y="640" as="targetPoint" />
          </mxGeometry>
        </mxCell>
        <mxCell id="SBLlrL6rcGhFqi7RE3Hi-41" value="" style="endArrow=none;html=1;rounded=0;exitX=0.585;exitY=1.008;exitDx=0;exitDy=0;exitPerimeter=0;" edge="1" parent="1" source="SBLlrL6rcGhFqi7RE3Hi-6">
          <mxGeometry relative="1" as="geometry">
            <mxPoint x="920" y="650" as="sourcePoint" />
            <mxPoint x="870" y="760" as="targetPoint" />
          </mxGeometry>
        </mxCell>
        <mxCell id="SBLlrL6rcGhFqi7RE3Hi-42" value="" style="endArrow=none;html=1;rounded=0;exitX=0.75;exitY=1;exitDx=0;exitDy=0;" edge="1" parent="1" source="SBLlrL6rcGhFqi7RE3Hi-6">
          <mxGeometry relative="1" as="geometry">
            <mxPoint x="880" y="740" as="sourcePoint" />
            <mxPoint x="1040" y="740" as="targetPoint" />
          </mxGeometry>
        </mxCell>
        <mxCell id="SBLlrL6rcGhFqi7RE3Hi-43" value="" style="endArrow=none;html=1;rounded=0;exitX=1;exitY=0.5;exitDx=0;exitDy=0;" edge="1" parent="1" source="SBLlrL6rcGhFqi7RE3Hi-6">
          <mxGeometry relative="1" as="geometry">
            <mxPoint x="950" y="590" as="sourcePoint" />
            <mxPoint x="1110" y="590" as="targetPoint" />
          </mxGeometry>
        </mxCell>
        <mxCell id="SBLlrL6rcGhFqi7RE3Hi-44" value="" style="endArrow=none;html=1;rounded=0;exitX=1;exitY=0.75;exitDx=0;exitDy=0;" edge="1" parent="1" source="SBLlrL6rcGhFqi7RE3Hi-6">
          <mxGeometry relative="1" as="geometry">
            <mxPoint x="1020" y="690" as="sourcePoint" />
            <mxPoint x="1180" y="690" as="targetPoint" />
          </mxGeometry>
        </mxCell>
        <mxCell id="SBLlrL6rcGhFqi7RE3Hi-45" value="" style="endArrow=none;html=1;rounded=0;entryX=0.25;entryY=1;entryDx=0;entryDy=0;" edge="1" parent="1" target="SBLlrL6rcGhFqi7RE3Hi-7">
          <mxGeometry relative="1" as="geometry">
            <mxPoint x="40" y="700" as="sourcePoint" />
            <mxPoint x="200" y="700" as="targetPoint" />
          </mxGeometry>
        </mxCell>
        <mxCell id="SBLlrL6rcGhFqi7RE3Hi-46" value="&lt;font style=&quot;font-size: 24px;&quot;&gt;handles&lt;/font&gt;" style="shape=rhombus;perimeter=rhombusPerimeter;whiteSpace=wrap;html=1;align=center;" vertex="1" parent="1">
          <mxGeometry x="800" y="300" width="230" height="90" as="geometry" />
        </mxCell>
        <mxCell id="SBLlrL6rcGhFqi7RE3Hi-47" value="&lt;font style=&quot;font-size: 24px;&quot;&gt;manages&lt;/font&gt;" style="shape=rhombus;perimeter=rhombusPerimeter;whiteSpace=wrap;html=1;align=center;" vertex="1" parent="1">
          <mxGeometry x="60" y="290" width="220" height="100" as="geometry" />
        </mxCell>
        <mxCell id="SBLlrL6rcGhFqi7RE3Hi-48" value="&lt;font style=&quot;font-size: 24px;&quot;&gt;provides&lt;/font&gt;" style="shape=rhombus;perimeter=rhombusPerimeter;whiteSpace=wrap;html=1;align=center;" vertex="1" parent="1">
          <mxGeometry x="430" y="70" width="220" height="90" as="geometry" />
        </mxCell>
        <mxCell id="SBLlrL6rcGhFqi7RE3Hi-49" value="&lt;font style=&quot;font-size: 24px;&quot;&gt;manages&lt;/font&gt;" style="shape=rhombus;perimeter=rhombusPerimeter;whiteSpace=wrap;html=1;align=center;" vertex="1" parent="1">
          <mxGeometry x="480" y="560" width="200" height="90" as="geometry" />
        </mxCell>
        <mxCell id="SBLlrL6rcGhFqi7RE3Hi-50" value="" style="endArrow=none;html=1;rounded=0;exitX=0.647;exitY=1.025;exitDx=0;exitDy=0;exitPerimeter=0;" edge="1" parent="1" source="SBLlrL6rcGhFqi7RE3Hi-4">
          <mxGeometry relative="1" as="geometry">
            <mxPoint x="760" y="300" as="sourcePoint" />
            <mxPoint x="920" y="300" as="targetPoint" />
          </mxGeometry>
        </mxCell>
        <mxCell id="SBLlrL6rcGhFqi7RE3Hi-51" value="" style="endArrow=none;html=1;rounded=0;entryX=0.5;entryY=0;entryDx=0;entryDy=0;" edge="1" parent="1" target="SBLlrL6rcGhFqi7RE3Hi-47">
          <mxGeometry relative="1" as="geometry">
            <mxPoint x="170" y="160" as="sourcePoint" />
            <mxPoint x="330" y="160" as="targetPoint" />
          </mxGeometry>
        </mxCell>
        <mxCell id="SBLlrL6rcGhFqi7RE3Hi-52" value="" style="endArrow=none;html=1;rounded=0;" edge="1" parent="1">
          <mxGeometry relative="1" as="geometry">
            <mxPoint x="170" y="390" as="sourcePoint" />
            <mxPoint x="170" y="560" as="targetPoint" />
          </mxGeometry>
        </mxCell>
        <mxCell id="SBLlrL6rcGhFqi7RE3Hi-53" value="" style="endArrow=none;html=1;rounded=0;" edge="1" parent="1">
          <mxGeometry relative="1" as="geometry">
            <mxPoint x="280" y="114" as="sourcePoint" />
            <mxPoint x="430" y="114.17000000000002" as="targetPoint" />
          </mxGeometry>
        </mxCell>
        <mxCell id="SBLlrL6rcGhFqi7RE3Hi-54" value="" style="endArrow=none;html=1;rounded=0;" edge="1" parent="1">
          <mxGeometry relative="1" as="geometry">
            <mxPoint x="650" y="114.17000000000002" as="sourcePoint" />
            <mxPoint x="810" y="114.17000000000002" as="targetPoint" />
          </mxGeometry>
        </mxCell>
        <mxCell id="SBLlrL6rcGhFqi7RE3Hi-55" value="" style="endArrow=none;html=1;rounded=0;exitX=0.5;exitY=1;exitDx=0;exitDy=0;entryX=0.5;entryY=0;entryDx=0;entryDy=0;" edge="1" parent="1" source="SBLlrL6rcGhFqi7RE3Hi-46" target="SBLlrL6rcGhFqi7RE3Hi-6">
          <mxGeometry relative="1" as="geometry">
            <mxPoint x="906" y="390" as="sourcePoint" />
            <mxPoint x="915" y="550" as="targetPoint" />
          </mxGeometry>
        </mxCell>
        <mxCell id="SBLlrL6rcGhFqi7RE3Hi-56" value="" style="endArrow=none;html=1;rounded=0;" edge="1" parent="1">
          <mxGeometry relative="1" as="geometry">
            <mxPoint x="680" y="604.17" as="sourcePoint" />
            <mxPoint x="820" y="604" as="targetPoint" />
          </mxGeometry>
        </mxCell>
        <mxCell id="SBLlrL6rcGhFqi7RE3Hi-57" value="" style="endArrow=none;html=1;rounded=0;entryX=0;entryY=0.5;entryDx=0;entryDy=0;" edge="1" parent="1" target="SBLlrL6rcGhFqi7RE3Hi-49">
          <mxGeometry relative="1" as="geometry">
            <mxPoint x="290" y="604.17" as="sourcePoint" />
            <mxPoint x="450" y="604.17" as="targetPoint" />
          </mxGeometry>
        </mxCell>
      </root>
    </mxGraphModel>
  </diagram>
</mxfile>
